PathFileType	4	(X/Y/Z)	Kaydara																																																																																																																									
DataRate	CameraRate	NumFrames	NumMarkers	Units	OrigDataRate	OrigDataStartFrame	OrigNumFrames																																																																																																																					
30	30	6	41	mm	30	120	373																																																																																																																					
Frame#	Time	NABA_LFHD			NABA_RFHD			NABA_LBHD			NABA_RBHD			NABA_LFTShould			NABA_RFTShould			NABA_LRRShould			NABA_RRRShould			NABA_T10			NABA_STRN			NABA_TRUN			NABA_LSHO			NABA_LUPA			NABA_LELB			NABA_LFRM			NABA_LWRA			NABA_LWRB			NABA_LFIN			NABA_RSHO			NABA_RUPA			NABA_RELB			NABA_RFRM			NABA_RWRA			NABA_RWRB			NABA_RFIN			NABA_LFWT			NABA_RFWT			NABA_LBWT			NABA_RBWT			NABA_LTHI			NABA_LKNE			NABA_LSHN			NABA_LANK			NABA_LHEE			NABA_LTOE			NABA_RTHI			NABA_RKNE			NABA_RSHN			NABA_RANK			NABA_RHEE			NABA_RTOE		
		X1	Y1	Z1	X2	Y2	Z2	X3	Y3	Z3	X4	Y4	Z4	X5	Y5	Z5	X6	Y6	Z6	X7	Y7	Z7	X8	Y8	Z8	X9	Y9	Z9	X10	Y10	Z10	X11	Y11	Z11	X12	Y12	Z12	X13	Y13	Z13	X14	Y14	Z14	X15	Y15	Z15	X16	Y16	Z16	X17	Y17	Z17	X18	Y18	Z18	X19	Y19	Z19	X20	Y20	Z20	X21	Y21	Z21	X22	Y22	Z22	X23	Y23	Z23	X24	Y24	Z24	X25	Y25	Z25	X26	Y26	Z26	X27	Y27	Z27	X28	Y28	Z28	X29	Y29	Z29	X30	Y30	Z30	X31	Y31	Z31	X32	Y32	Z32	X33	Y33	Z33	X34	Y34	Z34	X35	Y35	Z35	X36	Y36	Z36	X37	Y37	Z37	X38	Y38	Z38	X39	Y39	Z39	X40	Y40	Z40	X41	Y41	Z41
																																																																																																																												
47	3.963	143.74537	1451.21338	-1412.47635	-24.74142	1409.98917	-1412.36725	150.09062	1539.13025	-1502.59995	-62.78644	1479.36966	-1476.07117	128.62483	1322.46689	-1597.93381	2.97742	1307.50381	-1590.4129	121.96519	1399.58115	-1698.75916	-21.6534	1382.64954	-1682.71133	61.66424	1244.7229	-1797.8891	76.47825	1255.62126	-1553.43185	86.019	1151.84547	-1520.23956	217.65993	1361.79855	-1640.42847	288.62719	1137.87437	-1661.39511	289.80509	1037.11174	-1631.73691	279.42051	953.1675	-1642.84149	201.53612	824.77676	-1549.7345	272.93295	819.70596	-1544.36279	242.70041	772.40372	-1494.58466	-84.16622	1336.39297	-1615.13382	-141.67254	1132.30644	-1678.21686	-152.3802	1003.01529	-1622.75208	-148.57711	908.90404	-1607.2226	-65.48357	794.86328	-1530.03754	-137.10694	780.92209	-1519.72519	-116.43909	748.56964	-1486.01395	208.02214	959.19044	-1613.31573	-51.55495	948.26729	-1596.88141	151.48931	1008.3535	-1786.72211	-17.60823	1021.55243	-1776.62735	230.44615	648.82866	-1699.04236	240.85073	514.54334	-1610.54947	208.49075	314.51788	-1612.13196	239.10069	185.64564	-1717.99042	177.12509	143.48245	-1774.59457	246.25599	84.50791	-1610.80978	-36.23437	661.67946	-1738.74023	-11.66232	500.99159	-1625.05798	16.80786	328.60344	-1646.5004	29.57849	138.03301	-1715.33539	82.24652	95.76269	-1782.5	60.67543	79.01698	-1600.51071
48	3.997	141.65444	1452.13684	-1407.92877	-26.74168	1410.85953	-1407.68311	148.07451	1539.52759	-1498.57117	-64.82894	1479.84222	-1471.83823	126.77919	1322.32422	-1592.31445	0.43843	1308.02032	-1584.10904	120.25644	1398.93234	-1693.77197	-23.45889	1382.04895	-1677.9837	60.14104	1243.55247	-1792.31247	74.57564	1255.7782	-1547.78717	83.93644	1152.02087	-1514.12933	215.96729	1361.48376	-1634.94049	287.50242	1137.55936	-1655.32639	289.0761	1036.93092	-1625.70557	279.69954	953.46451	-1637.76962	204.32709	822.37839	-1546.7128	275.90622	818.41698	-1541.48361	246.57402	769.7374	-1492.40005	-86.16878	1336.04248	-1610.2626	-143.08506	1131.77834	-1673.49655	-153.44593	1002.3468	-1618.15323	-149.57346	908.2592	-1603.00095	-66.15746	794.36897	-1526.4415	-138.22939	779.51607	-1516.66824	-117.23057	747.37411	-1482.61856	207.82507	958.16162	-1607.96555	-53.21504	947.25891	-1591.03287	150.15408	1007.60292	-1779.91791	-19.04043	1020.49973	-1770.24811	229.0365	648.33603	-1689.12918	238.48118	514.74415	-1599.06952	205.95524	314.67716	-1589.7757	238.60752	179.3462	-1685.75684	178.42968	133.54324	-1741.85959	244.02472	85.09748	-1573.09845	-37.00428	661.09955	-1733.49304	-12.05572	499.89994	-1620.31799	17.1487	327.55638	-1643.47046	29.8926	137.75408	-1714.20593	82.85288	95.96416	-1781.86966	60.76931	79.01891	-1600.66238
49	4.03	139.81207	1452.71286	-1403.24127	-28.62543	1411.40945	-1403.03635	146.36198	1539.68918	-1494.2691	-66.60474	1480.13824	-1467.60239	125.48349	1322.35596	-1586.633	-1.73115	1308.23166	-1578.18817	118.95002	1398.19794	-1688.69751	-24.89357	1381.51169	-1673.23715	59.01098	1242.48474	-1786.82541	72.56019	1255.35301	-1541.95587	81.98548	1152.04735	-1508.11279	214.53987	1360.93887	-1629.38995	286.54566	1137.12013	-1649.77142	288.55337	1036.58775	-1620.32272	280.40558	953.64861	-1633.53607	207.96745	819.58878	-1544.99741	279.63074	816.80229	-1539.96277	251.38737	766.52573	-1491.76315	-88.10453	1335.63507	-1605.41183	-144.14841	1131.37039	-1669.27155	-154.23708	1001.72745	-1614.32907	-150.24149	907.6017	-1599.87076	-67.3456	792.61002	-1524.13666	-139.17555	778.2888	-1514.55597	-118.18354	745.74142	-1480.7756	207.77102	957.06757	-1602.49969	-54.88891	946.60027	-1583.88611	149.08397	1006.84525	-1773.42346	-20.11611	1019.67369	-1764.06555	228.09782	647.8582	-1679.34189	236.4584	515.10414	-1587.66479	203.07911	315.39539	-1568.83148	237.9417	174.78436	-1655.73181	179.12411	126.00605	-1710.18524	240.56625	85.76046	-1537.86255	-37.76073	660.69443	-1728.20724	-12.83784	499.00738	-1615.87616	16.89513	326.53942	-1640.09262	29.9683	137.62491	-1713.30734	82.97688	96.27061	-1781.16608	60.93473	78.84747	-1600.7251
50	4.063	138.218	1452.98981	-1398.39859	-30.1972	1411.84143	-1398.40118	145.031	1539.64722	-1489.73373	-68.01345	1480.36514	-1463.28491	124.23353	1322.03094	-1581.12457	-1.91732	1307.54547	-1574.8024	117.93969	1397.63229	-1683.59146	-25.96876	1381.06415	-1668.51379	58.17639	1241.59393	-1781.45737	71.02888	1255.68146	-1536.35101	80.19413	1152.01927	-1502.25967	213.3548	1360.46844	-1623.83682	285.78068	1136.66718	-1644.85306	288.30984	1036.25435	-1615.64209	281.28555	953.9724	-1630.25116	211.95423	816.77284	-1544.32983	283.71624	815.1387	-1539.74884	256.76367	763.23738	-1492.60849	-89.54482	1335.41336	-1600.64606	-144.95539	1131.29028	-1665.38589	-154.7344	1001.27922	-1611.21872	-150.86042	907.15363	-1597.61719	-67.85335	792.31514	-1522.72888	-140.18661	776.89438	-1513.63098	-119.25941	743.92159	-1480.18906	207.23356	956.39748	-1596.07224	-56.40628	946.11832	-1577.88666	148.39208	1006.16943	-1766.80725	-20.85184	1018.91327	-1758.21609	227.6623	647.4614	-1669.78165	234.77758	515.66154	-1576.3356	200.48147	316.74623	-1548.91571	236.87738	171.70433	-1627.50565	179.12493	120.55176	-1680.67978	236.05061	87.3569	-1504.90097	-38.30085	660.42412	-1723.35953	-13.8849	498.15559	-1611.38062	16.42478	325.74383	-1637.43393	29.90114	137.60451	-1712.58194	83.0607	96.7418	-1780.76263	60.91504	78.80874	-1600.65262
51	4.097	136.88854	1452.99957	-1393.43933	-31.57346	1412.22214	-1393.73245	144.08113	1539.50119	-1484.95819	-69.08252	1480.64484	-1458.84583	123.25611	1322.05124	-1575.42496	-3.46285	1307.65747	-1568.88565	117.21067	1397.10052	-1678.43903	-26.79606	1380.79102	-1663.76892	57.64654	1240.9005	-1776.07071	69.76955	1255.80315	-1530.66406	78.73616	1152.12608	-1496.48529	212.6473	1360.1091	-1618.37845	285.24097	1136.40266	-1640.46417	288.28753	1036.00418	-1611.86508	282.58972	954.75945	-1628.1424	216.22808	814.09782	-1545.09323	288.15498	813.54546	-1540.93643	262.15324	760.15137	-1494.62006	-90.58002	1335.42572	-1596.02814	-145.61605	1131.61499	-1661.8454	-155.29612	1001.22681	-1608.70743	-151.4979	906.91643	-1596.08871	-68.57181	790.87219	-1522.11349	-141.00074	775.61226	-1513.67218	-120.32978	742.24663	-1480.57678	206.13007	956.33896	-1589.27856	-57.694	945.71854	-1573.02689	148.02618	1005.65842	-1760.22003	-21.38142	1018.28484	-1752.59949	227.3642	647.31628	-1660.59219	233.34328	516.33701	-1565.77789	197.86392	318.52268	-1530.51468	235.0181	169.51788	-1600.47989	178.91275	116.6626	-1653.31055	230.96371	89.25138	-1474.55078	-38.45954	660.26299	-1718.72467	-14.86646	497.57336	-1608.069	15.91457	325.06016	-1634.99573	29.85663	137.77875	-1712.00897	83.18811	97.37158	-1780.40329	60.84937	78.6813	-1600.78506
52	4.13	135.9419	1453.14133	-1388.41766	-32.68539	1412.68341	-1388.96927	143.39369	1539.3631	-1480.06622	-69.91501	1481.04507	-1454.29382	122.5465	1321.93878	-1569.73846	-4.21884	1307.48016	-1563.87527	116.77057	1396.69189	-1673.18314	-27.31617	1380.60455	-1659.01443	57.43519	1240.2787	-1770.55771	68.68003	1255.97885	-1525.09842	77.34953	1152.38747	-1490.63919	212.10979	1359.80698	-1612.74017	285.09892	1136.26747	-1636.51062	288.65612	1035.77377	-1608.73627	283.27688	955.05188	-1626.27594	220.08251	811.87576	-1546.20865	292.07504	812.29362	-1542.75513	267.22824	757.51099	-1497.34192	-91.69936	1335.48248	-1591.41205	-146.46849	1132.27394	-1659.12064	-155.98033	1001.12732	-1606.50482	-152.25789	906.81892	-1595.04578	-69.45032	789.86649	-1522.37701	-141.95961	774.54071	-1514.0799	-121.30983	740.69496	-1481.5567	204.30891	956.84525	-1580.82642	-58.88824	945.15701	-1568.17413	147.78073	1005.17967	-1753.65021	-21.60336	1017.686	-1747.09717	227.25376	647.10342	-1651.76132	232.20263	516.79138	-1556.14853	194.89466	320.1778	-1513.52661	233.48682	168.19126	-1575.92331	178.27694	113.44156	-1627.59384	225.26566	91.89848	-1446.57257	-38.57896	660.09453	-1714.07562	-15.68536	496.931	-1603.72482	15.41416	324.39423	-1632.47574	29.77056	138.05074	-1711.34552	83.37553	98.25186	-1779.96979	60.73213	78.5778	-1600.37994
